<svg id="visual" viewBox="0 0 1200 900" width="1200" height="900" xmlns="http://www.w3.org/2000/svg" xmlns:xlink="http://www.w3.org/1999/xlink" version="1.1"><rect x="0" y="0" width="1200" height="900" fill="#F8F7F7"></rect><path d="M0 541L40 536.2C80 531.3 160 521.7 240 546.3C320 571 400 630 480 667.8C560 705.7 640 722.3 720 714.3C800 706.3 880 673.7 960 658C1040 642.3 1120 643.7 1160 644.3L1200 645L1200 901L1160 901C1120 901 1040 901 960 901C880 901 800 901 720 901C640 901 560 901 480 901C400 901 320 901 240 901C160 901 80 901 40 901L0 901Z" fill="#eeeeee"></path><path d="M0 604L40 610.7C80 617.3 160 630.7 240 658.7C320 686.7 400 729.3 480 753.3C560 777.3 640 782.7 720 752.2C800 721.7 880 655.3 960 626.2C1040 597 1120 605 1160 609L1200 613L1200 901L1160 901C1120 901 1040 901 960 901C880 901 800 901 720 901C640 901 560 901 480 901C400 901 320 901 240 901C160 901 80 901 40 901L0 901Z" fill="#dde5eb"></path><path d="M0 730L40 744.5C80 759 160 788 240 787.8C320 787.7 400 758.3 480 757.7C560 757 640 785 720 774.3C800 763.7 880 714.3 960 691.2C1040 668 1120 671 1160 672.5L1200 674L1200 901L1160 901C1120 901 1040 901 960 901C880 901 800 901 720 901C640 901 560 901 480 901C400 901 320 901 240 901C160 901 80 901 40 901L0 901Z" fill="#ccdbe8"></path><path d="M0 810L40 805.2C80 800.3 160 790.7 240 787.8C320 785 400 789 480 783C560 777 640 761 720 757.2C800 753.3 880 761.7 960 764.3C1040 767 1120 764 1160 762.5L1200 761L1200 901L1160 901C1120 901 1040 901 960 901C880 901 800 901 720 901C640 901 560 901 480 901C400 901 320 901 240 901C160 901 80 901 40 901L0 901Z" fill="#bbd2e5"></path></svg>