<svg id="visual" viewBox="0 0 1200 900" width="1200" height="900" xmlns="http://www.w3.org/2000/svg" xmlns:xlink="http://www.w3.org/1999/xlink" version="1.1"><rect x="0" y="0" width="1200" height="900" fill="#F8F7F7"></rect><path d="M0 700L40 682.5C80 665 160 630 240 627.8C320 625.7 400 656.3 480 655C560 653.7 640 620.3 720 624C800 627.7 880 668.3 960 700.8C1040 733.3 1120 757.7 1160 769.8L1200 782L1200 901L1160 901C1120 901 1040 901 960 901C880 901 800 901 720 901C640 901 560 901 480 901C400 901 320 901 240 901C160 901 80 901 40 901L0 901Z" fill="#eeeeee"></path><path d="M0 726L40 731.7C80 737.3 160 748.7 240 756.2C320 763.7 400 767.3 480 750.2C560 733 640 695 720 693.2C800 691.3 880 725.7 960 726.8C1040 728 1120 696 1160 680L1200 664L1200 901L1160 901C1120 901 1040 901 960 901C880 901 800 901 720 901C640 901 560 901 480 901C400 901 320 901 240 901C160 901 80 901 40 901L0 901Z" fill="#bad3ec"></path><path d="M0 701L40 719.7C80 738.3 160 775.7 240 782.7C320 789.7 400 766.3 480 749.2C560 732 640 721 720 722.3C800 723.7 880 737.3 960 747.3C1040 757.3 1120 763.7 1160 766.8L1200 770L1200 901L1160 901C1120 901 1040 901 960 901C880 901 800 901 720 901C640 901 560 901 480 901C400 901 320 901 240 901C160 901 80 901 40 901L0 901Z" fill="#7eb9e9"></path><path d="M0 821L40 826.3C80 831.7 160 842.3 240 844C320 845.7 400 838.3 480 826.2C560 814 640 797 720 795.2C800 793.3 880 806.7 960 809.2C1040 811.7 1120 803.3 1160 799.2L1200 795L1200 901L1160 901C1120 901 1040 901 960 901C880 901 800 901 720 901C640 901 560 901 480 901C400 901 320 901 240 901C160 901 80 901 40 901L0 901Z" fill="#00a0e6"></path></svg>