<svg id="visual" viewBox="0 0 1200 900" width="1200" height="900" xmlns="http://www.w3.org/2000/svg" xmlns:xlink="http://www.w3.org/1999/xlink" version="1.1"><rect x="0" y="0" width="1200" height="900" fill="#F8F7F7"></rect><path d="M0 749L40 745.2C80 741.3 160 733.7 240 734C320 734.3 400 742.7 480 755.3C560 768 640 785 720 792.3C800 799.7 880 797.3 960 793C1040 788.7 1120 782.3 1160 779.2L1200 776L1200 901L1160 901C1120 901 1040 901 960 901C880 901 800 901 720 901C640 901 560 901 480 901C400 901 320 901 240 901C160 901 80 901 40 901L0 901Z" fill="#eeeeee"></path><path d="M0 753L40 764.8C80 776.7 160 800.3 240 810.7C320 821 400 818 480 821.5C560 825 640 835 720 830.7C800 826.3 880 807.7 960 798.2C1040 788.7 1120 788.3 1160 788.2L1200 788L1200 901L1160 901C1120 901 1040 901 960 901C880 901 800 901 720 901C640 901 560 901 480 901C400 901 320 901 240 901C160 901 80 901 40 901L0 901Z" fill="#bad3ec"></path><path d="M0 830L40 833C80 836 160 842 240 833.5C320 825 400 802 480 792C560 782 640 785 720 793.7C800 802.3 880 816.7 960 820.3C1040 824 1120 817 1160 813.5L1200 810L1200 901L1160 901C1120 901 1040 901 960 901C880 901 800 901 720 901C640 901 560 901 480 901C400 901 320 901 240 901C160 901 80 901 40 901L0 901Z" fill="#7eb9e9"></path><path d="M0 840L40 838.5C80 837 160 834 240 831C320 828 400 825 480 828.7C560 832.3 640 842.7 720 843C800 843.3 880 833.7 960 835.5C1040 837.3 1120 850.7 1160 857.3L1200 864L1200 901L1160 901C1120 901 1040 901 960 901C880 901 800 901 720 901C640 901 560 901 480 901C400 901 320 901 240 901C160 901 80 901 40 901L0 901Z" fill="#00a0e6"></path></svg>